# xmcd CD database file
# Copyright (C) 1996 Ti Kan
#
# Track frame offsets:
# 	150
# 	19237
# 	39125
# 	54280
# 	80492
# 	95817
# 	111762
# 	139060
# 	156315
# 	180335
#
# Disc length: 2531 seconds
#
# Revision: 1
# Processed by: cddbd v1.4b41PL1 Copyright (c) Steve Scherf et al.
# Submitted via: DiscPlay 3.4.1
#
DISCID=7709e10a
DTITLE=Hippos - Hippocracy
DYEAR=1900
DGENRE=
TTITLE0=Tell it to the Jury
TTITLE1=Dark Age
TTITLE2=The Tiny Blues
TTITLE3=Breaking Up SomeBody's Home
TTITLE4=Rodent Operative
TTITLE5=One More Heartache
TTITLE6=I Don't Know
TTITLE7=Piano Frenzy
TTITLE8=Dance Don't Stop
TTITLE9=Harlem Nocturne
EXTD=
EXTT0=
EXTT1=
EXTT2=
EXTT3=
EXTT4=
EXTT5=
EXTT6=
EXTT7=
EXTT8=
EXTT9=
PLAYORDER=
